<svg width="46" height="32" viewBox="0 0 46 32" fill="none" xmlns="http://www.w3.org/2000/svg">
<path fill-rule="evenodd" clip-rule="evenodd" d="M23.2422 22.4391C21.6403 23.7699 19.5623 24.5732 17.2916 24.5732C12.225 24.5732 8.11768 20.5736 8.11768 15.6399C8.11768 10.7061 12.225 6.70654 17.2916 6.70654C19.5623 6.70654 21.6403 7.50989 23.2422 8.84064C24.8442 7.50989 26.9222 6.70654 29.1929 6.70654C34.2595 6.70654 38.3668 10.7061 38.3668 15.6399C38.3668 20.5736 34.2595 24.5732 29.1929 24.5732C26.9222 24.5732 24.8442 23.7699 23.2422 22.4391Z" fill="#ED0006"/>
<path fill-rule="evenodd" clip-rule="evenodd" d="M23.2421 22.4393C25.2146 20.8007 26.4654 18.3625 26.4654 15.6399C26.4654 12.9172 25.2146 10.479 23.2421 8.8405C24.844 7.50983 26.9219 6.70654 29.1926 6.70654C34.2592 6.70654 38.3664 10.7061 38.3664 15.6399C38.3664 20.5736 34.2592 24.5732 29.1926 24.5732C26.9219 24.5732 24.844 23.7699 23.2421 22.4393Z" fill="#F9A000"/>
<path fill-rule="evenodd" clip-rule="evenodd" d="M23.2422 22.439C25.2147 20.8005 26.4654 18.3624 26.4654 15.6398C26.4654 12.9172 25.2147 10.4791 23.2422 8.84058C21.2698 10.4791 20.019 12.9172 20.019 15.6398C20.019 18.3624 21.2698 20.8005 23.2422 22.439Z" fill="#FF5E00"/>
</svg>
