<svg width="46" height="32" viewBox="0 0 46 32" fill="none" xmlns="http://www.w3.org/2000/svg">
<path fill-rule="evenodd" clip-rule="evenodd" d="M14.5444 21.1444H11.7576L9.66796 13.0565C9.56877 12.6845 9.35817 12.3556 9.04839 12.2006C8.27528 11.811 7.42337 11.501 6.49402 11.3446V11.0332H10.9832C11.6028 11.0332 12.0674 11.501 12.1449 12.0442L13.2291 17.8782L16.0145 11.0332H18.7237L14.5444 21.1444ZM20.2728 21.1444H17.641L19.8081 11.0332H22.4399L20.2728 21.1444ZM25.8447 13.8343C25.9221 13.2898 26.3868 12.9784 26.9289 12.9784C27.7808 12.9002 28.7088 13.0566 29.4833 13.4448L29.948 11.2678C29.1735 10.9564 28.3216 10.8 27.5485 10.8C24.9941 10.8 23.1354 12.2006 23.1354 14.1444C23.1354 15.6231 24.452 16.3995 25.3814 16.8673C26.3868 17.3337 26.774 17.6451 26.6966 18.1114C26.6966 18.811 25.9221 19.1224 25.149 19.1224C24.2197 19.1224 23.2903 18.8892 22.4397 18.4997L21.9751 20.678C22.9044 21.0662 23.9099 21.2226 24.8392 21.2226C27.7034 21.2994 29.4833 19.9002 29.4833 17.8001C29.4833 15.1553 25.8447 15.0003 25.8447 13.8343ZM38.6939 21.1444L36.6042 11.0332H34.3596C33.895 11.0332 33.4303 11.3446 33.2754 11.811L29.4058 21.1444H32.1151L32.6558 19.667H35.9847L36.2944 21.1444H38.6939ZM34.7471 13.7562L35.5202 17.5669H33.353L34.7471 13.7562Z" fill="#ffffff"/>
</svg>
