<svg width="46" height="32" viewBox="0 0 46 32" fill="none" xmlns="http://www.w3.org/2000/svg">
<path fill-rule="evenodd" clip-rule="evenodd" d="M24.7157 10.8559L22.379 11.3647V9.44269L24.7157 8.94336V10.8559ZM29.5752 11.9205C28.6629 11.9205 28.0764 12.3539 27.7506 12.6554L27.6295 12.0712H25.5814V23.0566L27.9088 22.5573L27.9181 19.891C28.2533 20.136 28.7467 20.4845 29.5659 20.4845C31.2323 20.4845 32.7498 19.1279 32.7498 16.1413C32.7405 13.4091 31.2044 11.9205 29.5752 11.9205ZM29.0168 18.4118C28.4676 18.4118 28.1417 18.214 27.9183 17.969L27.909 14.4737C28.151 14.2005 28.4862 14.012 29.0168 14.012C29.864 14.012 30.4505 14.973 30.4505 16.2072C30.4505 17.4697 29.8733 18.4118 29.0168 18.4118ZM40.0859 16.2355C40.0859 13.8236 38.9315 11.9205 36.7252 11.9205C34.5095 11.9205 33.1689 13.8236 33.1689 16.2167C33.1689 19.0525 34.7516 20.4845 37.0231 20.4845C38.1309 20.4845 38.9688 20.2302 39.6018 19.8721V17.9879C38.9688 18.3082 38.2426 18.506 37.321 18.506C36.418 18.506 35.6174 18.1857 35.5149 17.074H40.0673C40.0673 17.0221 40.0707 16.9041 40.0745 16.7682L40.0745 16.7678L40.0745 16.7673L40.0746 16.7667L40.0746 16.7662L40.0746 16.7657C40.0798 16.5816 40.0859 16.3652 40.0859 16.2355ZM35.4868 15.3405C35.4868 14.2759 36.1292 13.8331 36.7157 13.8331C37.2836 13.8331 37.8887 14.2759 37.8887 15.3405H35.4868ZM22.3789 12.0807H24.7156V20.3244H22.3789V12.0807ZM19.7259 12.0807L19.8748 12.7779C20.4241 11.7603 21.5133 11.9676 21.8112 12.0807V14.2476C21.5226 14.144 20.5917 14.0121 20.0424 14.7375V20.3244H17.715V12.0807H19.7259ZM15.2198 10.0362L12.9483 10.5261L12.939 18.0727C12.939 19.467 13.9724 20.494 15.3502 20.494C16.1136 20.494 16.6721 20.3526 16.9794 20.183V18.2705C16.6814 18.393 15.2105 18.8264 15.2105 17.432V14.0874H16.9794V12.0807H15.2105L15.2198 10.0362ZM9.71817 13.965C9.22476 13.965 8.92685 14.1063 8.92685 14.4737C8.92685 14.8749 9.43956 15.0514 10.0756 15.2703C11.1126 15.6272 12.4773 16.097 12.4831 17.8372C12.4831 19.5236 11.1518 20.494 9.21545 20.494C8.41483 20.494 7.53973 20.3338 6.67394 19.957V17.7147C7.45594 18.1481 8.44276 18.4684 9.21545 18.4684C9.73679 18.4684 10.1092 18.3271 10.1092 17.8937C10.1092 17.4493 9.55339 17.2462 8.88242 17.001C7.86057 16.6275 6.57153 16.1564 6.57153 14.5868C6.57153 12.9192 7.82833 11.9205 9.71817 11.9205C10.4909 11.9205 11.2542 12.043 12.0269 12.3539V14.5679C11.3194 14.1817 10.4257 13.965 9.71817 13.965Z" fill="#ffffff"/>
</svg>
